<?xml version="1.0" encoding="utf-8"?>
<!-- Generator: Adobe Illustrator 16.0.0, SVG Export Plug-In . SVG Version: 6.00 Build 0)  -->
<!DOCTYPE svg PUBLIC "-//W3C//DTD SVG 1.1//EN" "http://www.w3.org/Graphics/SVG/1.1/DTD/svg11.dtd">
<svg version="1.1" id="Layer_1" xmlns="http://www.w3.org/2000/svg" xmlns:xlink="http://www.w3.org/1999/xlink" x="0px" y="0px"
	 width="113.4px" height="189px" viewBox="0 0 113.4 189" enable-background="new 0 0 113.4 189" xml:space="preserve">
<g>
	<g>
		<g>
			<path d="M221.623-53.393c1.922,0.516,3.34,1.143,4.254,1.881c1.242,1.078,1.863,2.396,1.863,3.955
				c0,1.453-0.39,2.725-1.169,3.814s-1.799,1.928-3.059,2.514s-2.581,0.879-3.964,0.879c-1.828,0-3.557-0.48-5.186-1.441
				c-1.641-0.984-2.461-2.063-2.461-3.234c0-0.316,0.114-0.612,0.343-0.888s0.501-0.413,0.817-0.413
				c0.387,0,0.938,0.434,1.652,1.301c0.832,0.902,1.576,1.5,2.232,1.793c1.113,0.527,2.121,0.791,3.023,0.791
				c1.172,0,2.244-0.337,3.217-1.011s1.459-1.585,1.459-2.733c0-1.254-0.451-2.106-1.354-2.558s-2.367-0.929-4.395-1.433
				s-3.568-1.157-4.623-1.96s-1.582-2.106-1.582-3.911c0-1.898,0.797-3.48,2.391-4.746c1.371-1.113,3.094-1.67,5.168-1.67
				c1.957,0,3.785,0.48,5.484,1.441c0.621,0.363,0.932,1.037,0.932,2.021c0,1.348-0.193,2.021-0.58,2.021
				c-0.305,0-0.794-0.334-1.468-1.002s-1.368-1.222-2.083-1.661s-1.641-0.659-2.777-0.659c-1.148,0-2.145,0.27-2.988,0.809
				s-1.266,1.324-1.266,2.355c0,0.879,0.316,1.535,0.949,1.969s1.541,0.838,2.725,1.213L221.623-53.393z"/>
		</g>
	</g>
</g>
<g>
	<g>
		<g>
			<path d="M200.641-43.564c-0.163-1.983-0.05-3.53,0.336-4.639c0.597-1.533,1.628-2.563,3.096-3.088
				c1.368-0.49,2.696-0.553,3.985-0.186c1.288,0.366,2.421,1.043,3.397,2.031c0.976,0.989,1.697,2.135,2.164,3.436
				c0.617,1.722,0.747,3.512,0.391,5.368c-0.374,1.877-1.112,3.013-2.215,3.407c-0.299,0.107-0.615,0.1-0.952-0.023
				c-0.336-0.122-0.558-0.332-0.665-0.63c-0.131-0.364,0.092-1.028,0.668-1.994c0.568-1.088,0.881-1.989,0.936-2.706
				c0.12-1.226,0.029-2.264-0.275-3.113c-0.395-1.104-1.074-1.999-2.036-2.688s-1.984-0.84-3.065-0.452
				c-1.181,0.423-1.832,1.135-1.952,2.137c-0.121,1.001-0.076,2.541,0.133,4.62c0.209,2.078,0.114,3.749-0.287,5.013
				c-0.4,1.264-1.45,2.2-3.149,2.808c-1.787,0.641-3.545,0.424-5.274-0.65c-1.511-0.915-2.615-2.35-3.315-4.303
				c-0.659-1.842-0.823-3.725-0.492-5.648c0.133-0.708,0.663-1.227,1.589-1.559c1.269-0.454,1.969-0.5,2.099-0.136
				c0.103,0.287-0.047,0.86-0.448,1.72c-0.402,0.859-0.689,1.7-0.862,2.521c-0.172,0.82-0.068,1.767,0.316,2.836
				c0.387,1.082,0.977,1.929,1.769,2.541c0.792,0.613,1.673,0.745,2.645,0.397c0.827-0.296,1.338-0.815,1.533-1.558
				c0.195-0.741,0.269-1.732,0.223-2.974L200.641-43.564z"/>
		</g>
	</g>
</g>
<g>
	<g>
		<g>
			<path d="M226.215-27.519c0.128-0.642,0.135-1.519,0.019-2.629c-0.083-0.796-0.118-1.299-0.105-1.51
				c0.012-0.212,0.184-0.483,0.516-0.814c0.273-0.273,0.651-0.39,1.131-0.349c0.48,0.043,0.866,0.208,1.156,0.498
				c0.721,0.721,0.945,1.789,0.671,3.207c-0.315,1.74-1.115,3.252-2.399,4.537c-1.483,1.482-3.182,2.439-5.096,2.871
				c-1.914,0.43-3.82,0.344-5.718-0.262s-3.571-1.633-5.021-3.082c-1.409-1.409-2.403-2.963-2.983-4.661
				c-0.58-1.699-0.667-3.401-0.261-5.108s1.317-3.27,2.734-4.687c1.765-1.765,3.924-2.696,6.476-2.797
				c1.534-0.091,2.565,0.129,3.095,0.659c0.373,0.373,0.39,0.729,0.05,1.068c-0.265,0.266-0.841,0.369-1.728,0.312
				c-2.105-0.199-3.986,0.53-5.644,2.187c-1.458,1.459-2.079,3.179-1.864,5.159c0.216,1.98,1.073,3.721,2.573,5.221
				c1.839,1.839,3.758,2.979,5.755,3.418c2.179,0.604,3.977,0.198,5.394-1.218C225.67-26.203,226.086-26.877,226.215-27.519z"/>
		</g>
	</g>
</g>
<g>
	<path d="M113.4,0c0,0-37.801,0-37.801,37.8s0,94.501,0,94.501H113.4V0z"/>
	<linearGradient id="SVGID_1_" gradientUnits="userSpaceOnUse" x1="0" y1="132.2998" x2="113.4004" y2="132.2998">
		<stop  offset="0" style="stop-color:#D47228"/>
		<stop  offset="1" style="stop-color:#25083F"/>
	</linearGradient>
	<path fill="url(#SVGID_1_)" d="M56.7,75.6C25.386,75.6,0,100.985,0,132.301C0,163.614,25.386,189,56.7,189
		c31.314,0,56.7-25.386,56.7-56.699C113.4,100.985,88.014,75.6,56.7,75.6z M56.7,151.199c-10.438,0-18.9-8.461-18.9-18.898
		c0-10.438,8.462-18.9,18.9-18.9s18.899,8.462,18.899,18.9C75.6,142.738,67.138,151.199,56.7,151.199z"/>
</g>
<text transform="matrix(1 0 0 1 140.4014 324)" font-family="'MyriadPro-Regular'" font-size="39.8896">DesignZzang</text>
</svg>
